<?xml version="1.0" encoding="UTF-8" standalone="no"?>
<!-- Created with Inkscape (http://www.inkscape.org/) -->

<svg
   xmlns:dc="http://purl.org/dc/elements/1.1/"
   xmlns:cc="http://creativecommons.org/ns#"
   xmlns:rdf="http://www.w3.org/1999/02/22-rdf-syntax-ns#"
   xmlns:svg="http://www.w3.org/2000/svg"
   xmlns="http://www.w3.org/2000/svg"
   xmlns:sodipodi="http://sodipodi.sourceforge.net/DTD/sodipodi-0.dtd"
   xmlns:inkscape="http://www.inkscape.org/namespaces/inkscape"
   width="210mm"
   height="297mm"
   viewBox="0 0 210 297"
   version="1.1"
   id="svg61270"
   inkscape:export-filename="/home/tc/PycharmProjects/pyos/pyos/assets/app-images/splash.png"
   inkscape:export-xdpi="87.089996"
   inkscape:export-ydpi="87.089996"
   inkscape:version="0.92.4 (33fec40, 2019-01-16)"
   sodipodi:docname="splash.svg">
  <defs
     id="defs61264" />
  <sodipodi:namedview
     id="base"
     pagecolor="#ffffff"
     bordercolor="#666666"
     borderopacity="1.0"
     inkscape:pageopacity="0.0"
     inkscape:pageshadow="2"
     inkscape:zoom="0.35"
     inkscape:cx="-85.714286"
     inkscape:cy="560"
     inkscape:document-units="mm"
     inkscape:current-layer="layer1"
     showgrid="false"
     inkscape:window-width="2505"
     inkscape:window-height="1376"
     inkscape:window-x="2615"
     inkscape:window-y="368"
     inkscape:window-maximized="1" />
  <metadata
     id="metadata61267">
    <rdf:RDF>
      <cc:Work
         rdf:about="">
        <dc:format>image/svg+xml</dc:format>
        <dc:type
           rdf:resource="http://purl.org/dc/dcmitype/StillImage" />
        <dc:title></dc:title>
      </cc:Work>
    </rdf:RDF>
  </metadata>
  <g
     inkscape:label="Layer 1"
     inkscape:groupmode="layer"
     id="layer1">
    <rect
       style="opacity:1;fill:#225500;fill-opacity:0.99549549;stroke:#112b00;stroke-width:13.35525513;stroke-linecap:round;stroke-linejoin:round;stroke-miterlimit:1.20000005;stroke-dasharray:none;stroke-dashoffset:2.57126927;stroke-opacity:0.96846846;paint-order:stroke markers fill"
       id="rect61159"
       width="177.06979"
       height="237.24034"
       x="18.054384"
       y="32.481018"
       rx="3.4573274"
       ry="4.5318341"
       inkscape:export-xdpi="25.610001"
       inkscape:export-ydpi="25.610001" />
    <g
       id="g6708"
       transform="matrix(0.2229874,-0.2562546,0.25658109,0.22327151,-76.751205,217.94099)"
       inkscape:export-xdpi="25.610001"
       inkscape:export-ydpi="25.610001">
      <rect
         ry="10.66401"
         rx="10.677597"
         style="display:inline;fill:#ffffff;fill-opacity:1;stroke:#000000;stroke-width:1.0005666;stroke-miterlimit:4;stroke-dasharray:none;stroke-opacity:1"
         id="rect6367-6"
         width="223.22835"
         height="311.81104"
         x="463.03534"
         y="-30.444927" />
      <path
         inkscape:connector-curvature="0"
         id="path6399-9"
         d="m 480.2527,39.5283 c -2.161,-3.5686 -4.4344,-7.0371 -7.2754,-10 2.841,-2.9628 5.1144,-6.4313 7.2754,-10 2.1609,3.5687 4.4343,7.0372 7.2753,10 -2.841,2.9629 -5.1144,6.4314 -7.2753,10 z"
         style="display:inline;opacity:1;fill:#d40000" />
      <path
         style="display:inline;opacity:1;fill:#d40000"
         d="m 669.04725,231.3929 c -2.161,-3.5686 -4.4344,-7.0371 -7.2754,-10 2.841,-2.9628 5.1144,-6.4313 7.2754,-10 2.1609,3.5687 4.4343,7.0372 7.2753,10 -2.841,2.9629 -5.1144,6.4314 -7.2753,10 z"
         id="path6403-1"
         inkscape:connector-curvature="0" />
      <path
         style="display:inline;opacity:1;fill:#d40000"
         d="m 574.6495,149.4606 c -5.1862,-8.5648 -10.6424,-16.8891 -17.4609,-24 6.8185,-7.1108 12.2747,-15.4351 17.4609,-24 5.1863,8.5649 10.6425,16.8892 17.461,24 -6.8185,7.1109 -12.2747,15.4352 -17.461,24 z"
         id="path6413-1"
         inkscape:connector-curvature="0" />
      <path
         style="opacity:1;fill:#d40000;fill-opacity:1"
         inkscape:connector-curvature="0"
         id="path41-87-9-4-8"
         d="m 470.15911,16.3928 v -2.8217 h 2.6923 l 5.7354,-30.1783 h 3.2644 l 6.3179,30.1783 h 2.1741 v 2.8217 h -7.4082 v -2.8217 h 1.9993 l -0.7984,-4.6247 h -7.4737 l -0.5773,4.6247 h 1.9992 v 2.8217 z m 13.3391,-10.7407 -3.249,-16.1524 -3.0432,16.1524 z m 0,0" />
      <path
         style="opacity:1;fill:#d40000;fill-opacity:1"
         inkscape:connector-curvature="0"
         id="path41-8-5-6-1"
         d="m 658.95364,234.5284 v 2.8217 h 2.6923 l 5.7354,30.1783 h 3.2644 l 6.3179,-30.1783 h 2.1741 v -2.8217 h -7.4082 v 2.8217 h 1.9993 l -0.7984,4.6246 h -7.4737 l -0.5773,-4.6246 h 1.9992 v -2.8217 z m 13.3391,10.7407 -3.249,16.1524 -3.0432,-16.1524 z m 0,0" />
    </g>
    <g
       id="g5120"
       transform="matrix(0.29851588,-0.16527185,0.16527266,0.29851736,88.8297,470.83004)"
       inkscape:export-xdpi="25.610001"
       inkscape:export-ydpi="25.610001">
      <rect
         y="-1088.3695"
         x="463.53342"
         height="310.81366"
         width="222.23225"
         id="rect6355-6-85-9-3-2"
         style="display:inline;fill:#ffffff;fill-opacity:1;stroke:#000000;stroke-width:0.99673247;stroke-miterlimit:4;stroke-dasharray:none;stroke-opacity:1"
         rx="10.629951"
         ry="10.629898" />
      <path
         style="display:inline;opacity:1"
         sodipodi:nodetypes="ccccccccccccccc"
         inkscape:connector-curvature="0"
         id="path147-0-8-1-6-1-1-0-9-1-8"
         d="m 574.6454,-956.47145 c -9.77448,0.21226 -14.15742,11.21727 -6.91838,19.76329 1.04991,1.24653 1.15822,1.96187 -0.76457,0.76452 -4.87385,-3.25919 -14.21926,-1.11662 -14.69781,8.84728 -0.59115,12.27695 16.56285,15.81427 19.78371,2.75967 0.17004,-1.37736 1.28941,-1.34593 1.01952,0.60916 -0.29367,5.30641 -1.95083,10.26606 -4.22862,15.10253 3.83908,0 8.12955,0 11.62019,0 -2.27768,-4.83647 -3.93495,-9.79612 -4.22863,-15.10253 -0.26989,-1.95509 0.84949,-1.98652 1.01953,-0.60916 3.22086,13.0546 20.37486,9.51728 19.78371,-2.75967 -0.47845,-9.9639 -9.82396,-12.10647 -14.69781,-8.84728 -1.92278,1.19735 -1.81447,0.48201 -0.76457,-0.76452 7.23905,-8.54602 2.8561,-19.55102 -6.91829,-19.76329 0,-6e-5 0,5e-5 -0.01,0 z" />
      <path
         style="display:inline;opacity:1"
         sodipodi:nodetypes="ccccccccccccccc"
         inkscape:connector-curvature="0"
         id="path147-6-9-8-7-0-5-0-8-3"
         d="m 668.62737,-827.36918 c 3.90978,-0.0884 5.66302,-4.67387 2.7674,-8.2347 -0.42002,-0.51939 -0.46333,-0.81746 0.30583,-0.31856 1.94956,1.358 5.6877,0.46526 5.87914,-3.68637 0.23644,-5.11539 -6.6252,-6.58927 -7.91353,-1.14986 -0.0677,0.57391 -0.51578,0.56081 -0.40777,-0.25381 0.11748,-2.21101 0.78031,-4.27753 1.69142,-6.29272 -1.54925,0 -3.09861,0 -4.64787,0 0.91112,2.01519 1.57395,4.08171 1.69142,6.29272 0.10802,0.81462 -0.33977,0.82772 -0.40777,0.25381 -1.28832,-5.43941 -8.14997,-3.96553 -7.91353,1.14986 0.19144,4.15163 3.92959,5.04437 5.87915,3.68637 0.76915,-0.4989 0.72585,-0.20083 0.30583,0.31856 -2.89562,3.56083 -1.14238,8.14624 2.76729,8.2347 10e-4,2e-5 0,-2e-5 0,0 z" />
      <path
         style="display:inline;opacity:1"
         inkscape:connector-curvature="0"
         id="path41-6-3-5-1"
         d="m 470.62543,-1041.6816 v -2.8127 h 2.68028 l 5.70981,-30.0817 h 3.24983 l 6.2897,30.0817 h 2.1644 v 2.8127 h -7.37513 v -2.8127 h 1.99038 l -0.79484,-4.6099 h -7.44035 l -0.57473,4.6099 h 1.99028 v 2.8127 z m 13.27957,-10.7064 -3.2345,-16.1007 -3.02962,16.1007 z m 0,0" />
      <path
         style="display:inline;opacity:1"
         inkscape:connector-curvature="0"
         id="path41-6-4-0-2-8"
         d="m 658.57747,-824.24369 v 2.81266 h 2.68028 l 5.70981,30.08178 h 3.24983 l 6.28971,-30.08178 h 2.1644 v -2.81266 h -7.37514 v 2.81266 h 1.99038 l -0.79484,4.60989 h -7.44035 l -0.57472,-4.60989 h 1.99027 v -2.81266 z m 13.27958,10.70638 -3.23451,16.10071 -3.02962,-16.10071 z m 0,0" />
      <path
         style="display:inline;opacity:1"
         sodipodi:nodetypes="ccccccccccccccc"
         inkscape:connector-curvature="0"
         id="path147-6-9-8-7-4-5-6-8-9"
         d="m 480.67243,-1038.5561 c -3.90977,0.088 -5.66301,4.6738 -2.76739,8.2347 0.42001,0.5194 0.46332,0.8174 -0.30583,0.3185 -1.94956,-1.358 -5.6877,-0.4652 -5.87914,3.6864 -0.23644,5.1154 6.62519,6.5893 7.91352,1.1499 0.0677,-0.5739 0.51579,-0.5608 0.40777,0.2538 -0.11747,2.211 -0.7803,4.2775 -1.69142,6.2927 1.54926,0 3.09861,0 4.64787,0 -0.91112,-2.0152 -1.57395,-4.0817 -1.69142,-6.2927 -0.10801,-0.8146 0.33978,-0.8277 0.40777,-0.2538 1.28833,5.4394 8.14997,3.9655 7.91353,-1.1499 -0.19144,-4.1516 -3.92958,-5.0444 -5.87915,-3.6864 -0.76915,0.4989 -0.72584,0.2009 -0.30582,-0.3185 2.89562,-3.5609 1.14238,-8.1463 -2.7673,-8.2347 -10e-4,0 0,0 0,0 z" />
    </g>
    <g
       style="display:inline"
       id="g11425-5-5"
       transform="matrix(0.33553649,-0.05296904,0.05303627,0.33596239,-8.8436125,438.08817)"
       inkscape:export-xdpi="25.610001"
       inkscape:export-ydpi="25.610001">
      <g
         transform="translate(178.95278,-1434.2756)"
         id="g9664-0-2"
         inkscape:label="5D"
         style="display:inline;opacity:1">
        <rect
           y="370.27557"
           x="260.43304"
           height="311.81104"
           width="223.22835"
           id="rect9666-2-2"
           style="display:inline;fill:#ffffff;fill-opacity:1;stroke:#000000;stroke-width:1.0005666;stroke-miterlimit:4;stroke-dasharray:none;stroke-opacity:1"
           rx="10.677567"
           ry="10.664032" />
      </g>
      <g
         id="g9684-3-0"
         style="display:inline;opacity:1"
         transform="translate(439.38585,-1064)" />
      <g
         transform="translate(465.9774,-1083.9055)"
         id="g9690-5-6"
         style="display:inline;opacity:1" />
      <path
         id="path9698-0-0"
         d="m -95.396892,-140.12123 c 0,0 -2.2247,-3.18978 -5.225698,-6.9401 -2.0077,-2.50969 -3.6127,-5.22722 -3.762,-7.56795 -0.1711,-2.67388 1.449,-5.35641 4.3821,-5.48643 2.931398,-0.12993 4.121198,2.06168 4.605598,3.86859 0.4844,-1.80691 1.6743,-3.99852 4.6056,-3.86859 2.9331,0.13002 4.5533,2.81255 4.3821,5.48643 -0.1492,2.34073 -1.7543,5.05826 -3.7619,7.56795 -3.0011,3.75032 -5.2258,6.9401 -5.2258,6.9401 z"
         style="display:inline;opacity:1;fill:#d40000"
         inkscape:connector-curvature="0"
         transform="translate(552.00001,-853.90551)"
         sodipodi:nodetypes="cccscsccc" />
      <path
         id="path9700-3-2"
         d="m 93.397604,31.743411 c 0,0 -2.2247,3.18978 -5.2257,6.9401 -2.0077,2.50969 -3.6127,5.22722 -3.762,7.56795 -0.1711,2.67388 1.449,5.35641 4.3821,5.48643 2.9314,0.12993 4.1212,-2.06168 4.6056,-3.86859 0.4844,1.80691 1.6743,3.99852 4.6056,3.86859 2.933096,-0.13002 4.553296,-2.81255 4.382096,-5.48643 -0.1492,-2.34073 -1.7543,-5.05826 -3.761896,-7.56795 -3.0011,-3.75032 -5.2258,-6.9401 -5.2258,-6.9401 z"
         style="display:inline;opacity:1;fill:#d40000"
         inkscape:connector-curvature="0"
         transform="translate(552.00001,-853.90551)"
         sodipodi:nodetypes="cccscsccc" />
      <path
         id="path9714-6-6"
         d="m -1.000056,-30.188979 c 0,0 -4.6663,-7.65547 -10.9609,-16.65626 -4.210998,-6.02326 -7.577598,-12.54533 -7.890598,-18.16309 -0.359,-6.41731 3.0392,-12.85538 9.191398,-13.16741 6.1485,-0.31185 8.6442,4.94803 9.6601,9.28461 1.01600005,-4.33658 3.5117,-9.59646 9.6602,-9.28461 6.1522,0.31203 9.5504,6.7501 9.1914,13.16741 -0.313,5.61776 -3.6796,12.13983 -7.8906,18.16309 -6.2946,9.00079 -10.961,16.65626 -10.961,16.65626 z"
         style="display:inline;opacity:1;fill:#d40000"
         inkscape:connector-curvature="0"
         transform="translate(552.00001,-853.90551)"
         sodipodi:nodetypes="cccscsccc" />
      <path
         style="opacity:1;fill:#d40000;fill-opacity:1;stroke-width:1;stroke-miterlimit:4;stroke-dasharray:none"
         inkscape:connector-curvature="0"
         id="path41-87-8-3-9"
         d="m 446.50961,-1017.1623 v -2.8217 h 2.6923 l 5.7354,-30.1783 h 3.2644 l 6.3179,30.1783 h 2.1741 v 2.8217 h -7.4082 v -2.8217 h 1.9993 l -0.7984,-4.6247 h -7.4737 l -0.5773,4.6247 h 1.9992 v 2.8217 z m 13.3391,-10.7407 -3.249,-16.1524 -3.0432,16.1524 z m 0,0" />
      <path
         style="opacity:1;fill:#d40000;fill-opacity:1"
         inkscape:connector-curvature="0"
         id="path41-8-5-1-8-7"
         d="m 635.30412,-799.02659 v 2.8217 h 2.6923 l 5.7354,30.1783 h 3.2644 l 6.3179,-30.1783 h 2.1741 v -2.8217 h -7.4082 v 2.8217 h 1.9993 l -0.7984,4.6246 h -7.4737 l -0.5773,-4.6246 h 1.9992 v -2.8217 z m 13.3391,10.7407 -3.249,16.1524 -3.0432,-16.1524 z m 0,0" />
    </g>
    <g
       style="display:inline"
       id="g8409-3-3"
       transform="matrix(0.33341765,0.06498562,-0.06506812,0.33384085,-22.589081,193.77239)"
       inkscape:export-xdpi="25.610001"
       inkscape:export-ydpi="25.610001">
      <rect
         ry="10.664032"
         rx="10.677567"
         style="display:inline;opacity:1;fill:#ffffff;fill-opacity:1;stroke:#000000;stroke-width:1.0005666;stroke-miterlimit:4;stroke-dasharray:none;stroke-opacity:1"
         id="rect6355-6-85-62-9-7"
         width="223.22835"
         height="311.81104"
         x="332.60825"
         y="-471.4082" />
      <path
         style="display:inline;opacity:1"
         sodipodi:nodetypes="cccccccccccc"
         inkscape:connector-curvature="0"
         id="path153-0-1-2-5-5-5-3-4"
         d="m 349.82555,-421.43493 c -4.3106,5.48214 -8.9228,8.6369 -8.9994,12.91389 -0.026,1.38495 0.8139,3.73892 3.4439,4.18949 1.7063,0.29097 4.0555,-0.94062 4.1046,-3.44272 -0.01,-0.49815 0.5914,-0.4852 0.5858,0.19738 -0.08,1.97364 -0.7809,4.27149 -1.9583,6.14196 1.8823,0 3.7645,0 5.6468,0 -1.1774,-1.87047 -1.878,-4.16832 -1.9583,-6.14196 -0.01,-0.68258 0.5933,-0.69553 0.5858,-0.19738 0.049,2.5021 2.3983,3.73369 4.1046,3.44272 2.63,-0.45057 3.4696,-2.80454 3.4439,-4.18949 -0.077,-4.27699 -4.6889,-7.43175 -8.9994,-12.91389 z" />
      <path
         style="display:inline;opacity:1"
         sodipodi:nodetypes="cccccccccccc"
         inkscape:connector-curvature="0"
         id="path153-0-1-2-5-6-5-9-1-9"
         d="m 538.62005,-209.57029 c -4.3106,-5.48214 -8.9228,-8.6369 -8.9994,-12.91389 -0.026,-1.38495 0.8139,-3.73892 3.4439,-4.18949 1.7063,-0.29097 4.0555,0.94062 4.1046,3.44272 -0.01,0.49815 0.5914,0.4852 0.5858,-0.19738 -0.08,-1.97364 -0.7809,-4.27149 -1.9583,-6.14196 1.8823,0 3.7645,0 5.6468,0 -1.1774,1.87047 -1.878,4.16832 -1.9583,6.14196 -0.01,0.68258 0.5933,0.69553 0.5858,0.19738 0.049,-2.5021 2.3983,-3.73369 4.1046,-3.44272 2.63,0.45057 3.4696,2.80454 3.4439,4.18949 -0.077,4.27699 -4.6889,7.43175 -8.9994,12.91389 z" />
      <path
         sodipodi:nodetypes="cccccccccccc"
         inkscape:connector-curvature="0"
         id="path153-6-3-1-6-92-7-2-9-8"
         d="m 444.22243,-339.50268 c -9.226,13.15712 -19.0977,20.72857 -19.2617,30.99333 -0.055,3.3239 1.7421,8.97342 7.3711,10.05478 3.652,0.69833 8.6801,-2.25748 8.7851,-8.26252 -0.016,-1.19555 1.2659,-1.16448 1.2539,0.47372 -0.172,4.73672 -1.6714,10.25156 -4.1914,14.74069 4.0287,0 8.0573,0 12.086,0 -2.52,-4.48913 -4.0194,-10.00397 -4.1914,-14.74069 -0.012,-1.6382 1.2699,-1.66927 1.2539,-0.47372 0.105,6.00504 5.1331,8.96085 8.7851,8.26252 5.629,-1.08136 7.4261,-6.73088 7.3711,-10.05478 -0.164,-10.26476 -10.0357,-17.83621 -19.2617,-30.99333 z"
         style="display:inline;opacity:1" />
      <path
         inkscape:connector-curvature="0"
         id="path41-4-9-2"
         d="m 339.73204,-424.57044 v -2.8217 h 2.6923 l 5.7354,-30.1783 h 3.2644 l 6.3179,30.1783 h 2.1741 v 2.8217 h -7.4082 v -2.8217 h 1.9993 l -0.7984,-4.6247 h -7.4737 l -0.5773,4.6247 h 1.9992 v 2.8217 z m 13.3391,-10.7408 -3.249,-16.1524 -3.0432,16.1524 z m 0,0"
         style="display:inline;opacity:1" />
      <path
         inkscape:connector-curvature="0"
         id="path41-4-2-4-0"
         d="m 528.52654,-206.43478 v 2.8217 h 2.6923 l 5.7354,30.1783 h 3.26439 l 6.3179,-30.1783 h 2.1741 v -2.8217 h -7.4082 v 2.8217 h 1.9993 l -0.7984,4.6247 h -7.47369 l -0.5773,-4.6247 h 1.9992 v -2.8217 z m 13.33909,10.7408 -3.249,16.1524 -3.04319,-16.1524 z m 0,0"
         style="display:inline;opacity:1" />
    </g>
    <flowRoot
       xml:space="preserve"
       id="flowRoot61169"
       style="font-style:normal;font-variant:normal;font-weight:normal;font-stretch:normal;font-size:40px;line-height:1.25;font-family:'Liberation Sans Narrow';-inkscape-font-specification:'Liberation Sans Narrow';letter-spacing:0px;word-spacing:0px;fill:#ffffff;fill-opacity:1;stroke:none;stroke-width:0.75590551;stroke-miterlimit:1.20000005;stroke-dasharray:none"
       transform="matrix(0.38544553,0,0,0.38544553,-2.8432745,-70.495641)"
       inkscape:export-xdpi="25.610001"
       inkscape:export-ydpi="25.610001"><flowRegion
         id="flowRegion61171"
         style="font-style:normal;font-variant:normal;font-weight:normal;font-stretch:normal;font-family:'Liberation Sans Narrow';-inkscape-font-specification:'Liberation Sans Narrow';fill:#ffffff;stroke-width:0.75590551;stroke-miterlimit:1.20000005;stroke-dasharray:none"><rect
           id="rect61173"
           width="1431.8687"
           height="149.01131"
           x="60"
           y="653.70081"
           style="font-style:normal;font-variant:normal;font-weight:normal;font-stretch:normal;font-family:'Liberation Sans Narrow';-inkscape-font-specification:'Liberation Sans Narrow';fill:#ffffff;stroke-width:0.75590551;stroke-miterlimit:1.20000005;stroke-dasharray:none" /></flowRegion><flowPara
         id="flowPara61175"
         style="font-style:normal;font-variant:normal;font-weight:normal;font-stretch:normal;font-size:53.33333588px;font-family:'Liberation Sans Narrow';-inkscape-font-specification:'Liberation Sans Narrow';stroke-width:0.75590551;stroke-miterlimit:1.20000005;stroke-dasharray:none">Adfree Simple Solitaire</flowPara></flowRoot>    <flowRoot
       xml:space="preserve"
       id="flowRoot61169-3"
       style="font-style:normal;font-variant:normal;font-weight:normal;font-stretch:normal;font-size:40px;line-height:1.25;font-family:'Liberation Sans Narrow';-inkscape-font-specification:'Liberation Sans Narrow';letter-spacing:0px;word-spacing:0px;fill:#ffffff;fill-opacity:1;stroke:none;stroke-width:0.75590551;stroke-miterlimit:1.20000005;stroke-dasharray:none"
       transform="matrix(0.30580611,0,0,0.30580611,56.697424,28.87931)"
       inkscape:export-xdpi="25.610001"
       inkscape:export-ydpi="25.610001"><flowRegion
         id="flowRegion61171-6"
         style="font-style:normal;font-variant:normal;font-weight:normal;font-stretch:normal;font-family:'Liberation Sans Narrow';-inkscape-font-specification:'Liberation Sans Narrow';fill:#ffffff;stroke-width:0.75590551;stroke-miterlimit:1.20000005;stroke-dasharray:none"><rect
           id="rect61173-7"
           width="1431.8687"
           height="149.01131"
           x="60"
           y="653.70081"
           style="font-style:normal;font-variant:normal;font-weight:normal;font-stretch:normal;font-family:'Liberation Sans Narrow';-inkscape-font-specification:'Liberation Sans Narrow';fill:#ffffff;stroke-width:0.75590551;stroke-miterlimit:1.20000005;stroke-dasharray:none" /></flowRegion><flowPara
         id="flowPara61175-8"
         style="font-style:normal;font-variant:normal;font-weight:normal;font-stretch:normal;font-size:53.33333588px;font-family:'Liberation Sans Narrow';-inkscape-font-specification:'Liberation Sans Narrow';stroke-width:0.75590551;stroke-miterlimit:1.20000005;stroke-dasharray:none">loading...</flowPara></flowRoot>  </g>
</svg>
